# xmcd
#
# Track frame offsets:
#	150
#	22277
#	43643
#	67783
#	83365
#	105911
#	128353
#	147919
#	168279
#	202831
#	221738
#
# Disc length: 3214 seconds
#
# Revision: 1
# Processed by: cddbd v1.4PL0 Copyright (c) Steve Scherf et al.
# Submitted via: audiograbber 1.81.02
#
DISCID=850c8c0b
DTITLE=SP Just Frost - Love from above
DYEAR=2002
DGENRE=Blues
TTITLE0=Give it away
TTITLE1=Shake that ass
TTITLE2=King of the road
TTITLE3=Whole lotta shakin'
TTITLE4=Gee baby
TTITLE5=Mardi Gras in New Orleans or Smoke that fire
TTITLE6=Someday you'll be sorry
TTITLE7=Baby won't you please come home
TTITLE8=Bourbon St. Parade
TTITLE9=Just a little lovin'
TTITLE10=Op og stå
EXTD=
EXTT0=
EXTT1=
EXTT2=
EXTT3=
EXTT4=
EXTT5=
EXTT6=
EXTT7=
EXTT8=
EXTT9=
EXTT10=
PLAYORDER=
